REM DIRINDEX 1\3,1\4,1\5,1\6,1\2\7,1\2\8,1\2\9,1\10
REM DIRNAME folder01,folder02,folder03,folder04,folder05,folder06,folder07,folder08,folder09,folder10
TITLE ""
FILE "2-35 Level 5-837-848.mp3" MP3
  TRACK 01 AUDIO
    TITLE "0:"
    INDEX 01 00:00:00
  TRACK 02 AUDIO
    TITLE "7:cjc056_2851"
    INDEX 01 00:00:07
  TRACK 03 AUDIO
    TITLE "0:"
    INDEX 01 00:01:11
  TRACK 04 AUDIO
    TITLE "8:cjc056_2852"
    INDEX 01 00:01:22
  TRACK 05 AUDIO
    TITLE "0:"
    INDEX 01 00:03:02
  TRACK 06 AUDIO
    TITLE "9:cjc056_2853"
    INDEX 01 00:03:15
  TRACK 07 AUDIO
    TITLE "0:"
    INDEX 01 00:05:50
  TRACK 08 AUDIO
    TITLE "7:cjc056_2854"
    INDEX 01 00:06:26
  TRACK 09 AUDIO
    TITLE "0:"
    INDEX 01 00:07:58
  TRACK 10 AUDIO
    TITLE "8:cjc056_2855"
    INDEX 01 00:07:72
  TRACK 11 AUDIO
    TITLE "0:"
    INDEX 01 00:09:14
  TRACK 12 AUDIO
    TITLE "9:cjc056_2856"
    INDEX 01 00:09:26
  TRACK 13 AUDIO
    TITLE "0:"
    INDEX 01 00:11:54
  TRACK 14 AUDIO
    TITLE "7:cjc056_2857"
    INDEX 01 00:12:30
  TRACK 15 AUDIO
    TITLE "0:"
    INDEX 01 00:13:37
  TRACK 16 AUDIO
    TITLE "8:cjc056_2858"
    INDEX 01 00:13:51
  TRACK 17 AUDIO
    TITLE "0:"
    INDEX 01 00:14:54
  TRACK 18 AUDIO
    TITLE "9:cjc056_2859"
    INDEX 01 00:14:66
  TRACK 19 AUDIO
    TITLE "0:"
    INDEX 01 00:17:35
  TRACK 20 AUDIO
    TITLE "7:cjc056_2860"
    INDEX 01 00:18:03
  TRACK 21 AUDIO
    TITLE "0:"
    INDEX 01 00:19:11
  TRACK 22 AUDIO
    TITLE "8:cjc056_2861"
    INDEX 01 00:19:24
  TRACK 23 AUDIO
    TITLE "0:"
    INDEX 01 00:20:39
  TRACK 24 AUDIO
    TITLE "9:cjc056_2862"
    INDEX 01 00:20:51
  TRACK 25 AUDIO
    TITLE "0:"
    INDEX 01 00:23:73
  TRACK 26 AUDIO
    TITLE "7:cjc056_2863"
    INDEX 01 00:24:45
  TRACK 27 AUDIO
    TITLE "0:"
    INDEX 01 00:25:41
  TRACK 28 AUDIO
    TITLE "8:cjc056_2864"
    INDEX 01 00:25:54
  TRACK 29 AUDIO
    TITLE "0:"
    INDEX 01 00:26:73
  TRACK 30 AUDIO
    TITLE "9:cjc056_2865"
    INDEX 01 00:27:06
  TRACK 31 AUDIO
    TITLE "0:"
    INDEX 01 00:29:58
  TRACK 32 AUDIO
    TITLE "7:cjc056_2866"
    INDEX 01 00:30:30
  TRACK 33 AUDIO
    TITLE "0:"
    INDEX 01 00:31:31
  TRACK 34 AUDIO
    TITLE "8:cjc056_2867"
    INDEX 01 00:31:45
  TRACK 35 AUDIO
    TITLE "0:"
    INDEX 01 00:33:05
  TRACK 36 AUDIO
    TITLE "9:cjc056_2868"
    INDEX 01 00:33:15
  TRACK 37 AUDIO
    TITLE "0:"
    INDEX 01 00:36:17
  TRACK 38 AUDIO
    TITLE "7:cjc056_2869"
    INDEX 01 00:36:64
  TRACK 39 AUDIO
    TITLE "0:"
    INDEX 01 00:37:57
  TRACK 40 AUDIO
    TITLE "8:cjc056_2870"
    INDEX 01 00:37:71
  TRACK 41 AUDIO
    TITLE "0:"
    INDEX 01 00:39:51
  TRACK 42 AUDIO
    TITLE "9:cjc056_2871"
    INDEX 01 00:39:62
  TRACK 43 AUDIO
    TITLE "0:"
    INDEX 01 00:42:18
  TRACK 44 AUDIO
    TITLE "7:cjc056_2872"
    INDEX 01 00:42:68
  TRACK 45 AUDIO
    TITLE "0:"
    INDEX 01 00:43:64
  TRACK 46 AUDIO
    TITLE "8:cjc056_2873"
    INDEX 01 00:44:01
  TRACK 47 AUDIO
    TITLE "0:"
    INDEX 01 00:45:39
  TRACK 48 AUDIO
    TITLE "9:cjc056_2874"
    INDEX 01 00:45:51
  TRACK 49 AUDIO
    TITLE "0:"
    INDEX 01 00:48:44
  TRACK 50 AUDIO
    TITLE "7:cjc056_2875"
    INDEX 01 00:49:18
  TRACK 51 AUDIO
    TITLE "0:"
    INDEX 01 00:50:23
  TRACK 52 AUDIO
    TITLE "8:cjc056_2876"
    INDEX 01 00:50:31
  TRACK 53 AUDIO
    TITLE "0:"
    INDEX 01 00:51:67
  TRACK 54 AUDIO
    TITLE "9:cjc056_2877"
    INDEX 01 00:52:06
  TRACK 55 AUDIO
    TITLE "0:"
    INDEX 01 00:54:44
  TRACK 56 AUDIO
    TITLE "7:cjc056_2878"
    INDEX 01 00:55:20
  TRACK 57 AUDIO
    TITLE "0:"
    INDEX 01 00:56:27
  TRACK 58 AUDIO
    TITLE "8:cjc056_2879"
    INDEX 01 00:56:39
  TRACK 59 AUDIO
    TITLE "0:"
    INDEX 01 00:57:45
  TRACK 60 AUDIO
    TITLE "9:cjc056_2880"
    INDEX 01 00:57:56
  TRACK 61 AUDIO
    TITLE "0:"
    INDEX 01 01:00:70
  TRACK 62 AUDIO
    TITLE "7:cjc056_2881"
    INDEX 01 01:01:46
  TRACK 63 AUDIO
    TITLE "0:"
    INDEX 01 01:03:00
  TRACK 64 AUDIO
    TITLE "8:cjc056_2882"
    INDEX 01 01:03:14
  TRACK 65 AUDIO
    TITLE "0:"
    INDEX 01 01:04:31
  TRACK 66 AUDIO
    TITLE "9:cjc056_2883"
    INDEX 01 01:04:45
  TRACK 67 AUDIO
    TITLE "0:"
    INDEX 01 01:07:25
  TRACK 68 AUDIO
    TITLE "7:cjc056_2884"
    INDEX 01 01:08:01
  TRACK 69 AUDIO
    TITLE "0:"
    INDEX 01 01:09:14
  TRACK 70 AUDIO
    TITLE "8:cjc056_2885"
    INDEX 01 01:09:24
  TRACK 71 AUDIO
    TITLE "0:"
    INDEX 01 01:10:51
  TRACK 72 AUDIO
    TITLE "9:cjc056_2886"
    INDEX 01 01:10:63
  TRACK 73 AUDIO
    TITLE "0:"
    INDEX 01 01:13:18
